#!OML:ASF E:\motion texture\Top Level 1\Subject 1\Session 1\male.ASF
:FULLY-SPECIFIED
:DEGREES
287
root -9.64048 17.5274 3.69698 448.23 -85.9278 -445.216
lowerback -2.08937 -0.145353 2.96045
upperback -3.47716 -0.250541 1.37456
thorax -2.40574 -0.208392 -0.245119
lowerneck -17.6254 -5.11896 -6.56153
upperneck 15.4202 -7.13675 8.96814
head 8.25825 -2.93359 3.18465
rclavicle -1.86438e-015 7.27428e-015
rhumerus -35.3299 6.42673 -87.4219
rradius 47.5852
rwrist 2.12409
rhand -10.484 -8.61198
rfingers 7.12502
rthumb 15.5176 -38.0093
lclavicle -1.86438e-015 7.27428e-015
lhumerus -34.1515 -9.2803 98.1696
lradius 55.3583
lwrist 4.97359
lhand -12.0983 6.74441
lfingers 7.12502
lthumb 13.9623 36.2556
rfemur -5.68899 -4.02629 21.7706
rtibia 58.1413
rfoot 201.549 184.545
rtoes 7.8827
lfemur -25.096 -0.040839 -17.6129
ltibia 34.5117
lfoot 712.002 -2.02012
ltoes 3.00383
288
root -9.77607 17.536 3.70734 440.208 -86.5472 -437.68
lowerback -1.46574 -0.451104 2.16195
upperback -3.2276 -0.62815 1.31681
thorax -2.49859 -0.371858 0.146418
lowerneck -17.8344 -5.16981 -6.60521
upperneck 15.2786 -7.18052 9.02539
head 8.25552 -2.9464 3.20152
rclavicle -2.34193e-015 1.35671e-014
rhumerus -36.5663 4.37725 -85.8163
rradius 45.9749
rwrist 3.2457
rhand -10.3467 -8.52558
rfingers 7.12502
rthumb 15.6498 -37.9126
lclavicle -2.34193e-015 1.35671e-014
lhumerus -32.2264 -10.2663 98.8385
lradius 56.6753
lwrist 5.12613
lhand -12.4412 6.50897
lfingers 7.12502
lthumb 13.6318 36.0426
rfemur -8.28536 -4.33071 20.8713
rtibia 62.9347
rfoot 201.666 184.691
rtoes 9.11878
lfemur -24.0475 -0.558531 -18.4508
ltibia 34.4179
lfoot 711.611 -2.41869
ltoes 3.10395
289
root -9.9103 17.547 3.71665 432.62 -87.1278 -430.588
lowerback -0.862102 -0.699251 1.40982
upperback -2.96622 -0.940597 1.24559
thorax -2.56076 -0.505162 0.502342
lowerneck -18.0061 -5.18432 -6.63324
upperneck 15.1319 -7.18162 9.0894
head 8.24054 -2.93881 3.22438
rclavicle -3.79554e-015 -2.93207e-015
rhumerus -37.8051 2.45426 -84.1344
rradius 44.5615
rwrist 4.20298
rhand -10.1662 -8.44143
rfingers 7.12502
rthumb 15.8236 -37.8148
lclavicle -3.79554e-015 -2.93207e-015
lhumerus -30.3577 -11.2691 99.3408
lradius 58.1015
lwrist 5.30533
lhand -12.7062 6.36082
lfingers 7.12502
lthumb 13.3764 35.9114
rfemur -11.0103 -4.48053 20.058
rtibia 67.7916
rfoot 200.88 184.86
rtoes 9.4481
lfemur -22.7854 -0.787115 -19.2639
ltibia 34.0396
lfoot 711.279 -2.7882
ltoes 3.22526
290
root -10.0433 17.5604 3.72683 425.66 -87.6788 -424.091
lowerback -0.313325 -0.904154 0.755475
upperback -2.71405 -1.20566 1.16341
thorax -2.59802 -0.618919 0.794669
lowerneck -18.1615 -5.15266 -6.63136
upperneck 15.0161 -7.12882 9.14207
head 8.22682 -2.90534 3.24627
rclavicle -5.40446e-015 2.78299e-015
rhumerus -39.0361 0.769928 -82.4362
rradius 43.3385
rwrist 4.94625
rhand -9.92126 -8.39179
rfingers 7.12502
rthumb 16.0595 -37.7463
lclavicle -5.40446e-015 2.78299e-015
lhumerus -28.573 -12.2702 99.6609
lradius 59.6376
lwrist 5.54128
lhand -12.8479 6.33912
lfingers 7.12502
lthumb 13.2398 35.8986
rfemur -13.8883 -4.52372 19.3363
rtibia 72.6024
rfoot 199.6 185.172
rtoes 9.04379
lfemur -21.37 -0.870684 -20.0343
ltibia 33.3798
lfoot 711.008 -3.02759
ltoes 3.31815
291
root -10.1755 17.5772 3.7387 418.904 -88.1957 -417.75
lowerback 0.177821 -1.08697 0.227964
upperback -2.49424 -1.44829 1.07503
thorax -2.63529 -0.726101 1.01141
lowerneck -18.2879 -5.07265 -6.60612
upperneck 14.9547 -7.01877 9.17544
head 8.21956 -2.84561 3.26635
rclavicle 2.50966e-015 7.55382e-015
rhumerus -40.2681 -0.610186 -80.7712
rradius 42.3048
rwrist 5.47884
rhand -9.7464 -8.3049
rfingers 7.12502
rthumb 16.2278 -37.6457
lclavicle 2.50966e-015 7.55382e-015
lhumerus -26.9048 -13.2369 99.7955
lradius 61.2731
lwrist 5.80649
lhand -12.7731 6.52665
lfingers 7.12502
lthumb 13.3119 36.0815
rfemur -16.9044 -4.51136 18.7148
rtibia 77.2585
rfoot 198.264 185.881
rtoes 8.47472
lfemur -19.856 -0.95298 -20.758
ltibia 32.4728
lfoot 710.8 -3.06529
ltoes 3.34252
292
root -10.3062 17.5985 3.75242 410.907 -88.6649 -410.082
lowerback 0.5908 -1.27527 -0.180783
upperback -2.32282 -1.70263 0.99109
thorax -2.6781 -0.842948 1.16785
lowerneck -18.4051 -4.94275 -6.53287
upperneck 14.9694 -6.84729 9.14429
head 8.22643 -2.75955 3.26573
rclavicle -1.12562e-014 -3.37934e-015
rhumerus -41.4879 -1.6405 -79.1716
rradius 41.4719
rwrist 5.82246
rhand -9.63771 -8.18466
rfingers 7.12502
rthumb 16.3325 -37.5169
lclavicle -1.12562e-014 -3.37934e-015
lhumerus -25.3417 -14.1281 99.7424
lradius 62.9641
lwrist 6.06698
lhand -12.5343 6.7314
lfingers 7.12502
lthumb 13.5421 36.271
rfemur -20.0795 -4.49572 18.1902
rtibia 82.5781
rfoot 199.746 214.165
rtoes 8.23424
lfemur -18.3491 -1.14649 -21.4485
ltibia 31.4137
lfoot 710.636 -2.86028
ltoes 3.2637
293
root -10.4355 17.6246 3.76689 397.31 -89.0536 -396.722
lowerback 0.927442 -1.48689 -0.509265
upperback -2.20716 -1.99068 0.917423
thorax -2.73415 -0.97894 1.29194
lowerneck -18.5146 -4.77179 -6.4088
upperneck 15.0556 -6.62274 9.03009
head 8.24644 -2.6527 3.23643
rclavicle -3.35449e-016 -1.23246e-014
rhumerus -42.699 -2.32632 -77.6515
rradius 40.8501
rwrist 6.01116
rhand -9.57867 -8.07356
rfingers 7.12502
rthumb 16.3893 -37.4011
lclavicle -3.35449e-016 -1.23246e-014
lhumerus -23.8699 -14.9408 99.522
lradius 64.6618
lwrist 6.31016
lhand -12.1859 6.92322
lfingers 7.12502
lthumb 13.8778 36.4402
rfemur -23.3991 -4.53445 17.7466
rtibia 87.3327
rfoot 202.752 242.462
rtoes 8.34511
lfemur -16.9081 -1.51569 -22.1336
ltibia 30.2786
lfoot 710.492 -2.42225
ltoes 3.10835
